<svg width="27" height="28" viewBox="0 0 27 28" fill="none" xmlns="http://www.w3.org/2000/svg">
<g clip-path="url(#clip0_5_246)">
<mask id="path-1-outside-1_5_246" maskUnits="userSpaceOnUse" x="0.500854" y="0.994629" width="25" height="25" fill="black">
<rect fill="white" x="0.500854" y="0.994629" width="25" height="25"/>
<path d="M10.1081 21.5853C4.67436 23.2155 4.67436 18.8684 2.50085 18.3251ZM17.7154 24.8456V20.6399C17.7562 20.1216 17.6862 19.6007 17.51 19.1116C17.3339 18.6226 17.0557 18.1766 16.6939 17.8034C20.1063 17.4231 23.6926 16.1298 23.6926 10.1961C23.6923 8.67884 23.1086 7.21974 22.0624 6.12081C22.5578 4.79335 22.5228 3.32606 21.9646 2.02375C21.9646 2.02375 20.6823 1.64338 17.7154 3.63214C15.2246 2.95707 12.599 2.95707 10.1081 3.63214C7.1413 1.64338 5.85893 2.02375 5.85893 2.02375C5.30074 3.32606 5.26572 4.79335 5.76112 6.12081C4.7071 7.22789 4.12286 8.70018 4.13099 10.2287C4.13099 16.119 7.71728 17.4122 11.1297 17.836C10.7721 18.2055 10.4964 18.6461 10.3204 19.1292C10.1444 19.6123 10.0721 20.127 10.1081 20.6399V24.8456"/>
</mask>
<path d="M10.1081 21.5853C4.67436 23.2155 4.67436 18.8684 2.50085 18.3251ZM17.7154 24.8456V20.6399C17.7562 20.1216 17.6862 19.6007 17.51 19.1116C17.3339 18.6226 17.0557 18.1766 16.6939 17.8034C20.1063 17.4231 23.6926 16.1298 23.6926 10.1961C23.6923 8.67884 23.1086 7.21974 22.0624 6.12081C22.5578 4.79335 22.5228 3.32606 21.9646 2.02375C21.9646 2.02375 20.6823 1.64338 17.7154 3.63214C15.2246 2.95707 12.599 2.95707 10.1081 3.63214C7.1413 1.64338 5.85893 2.02375 5.85893 2.02375C5.30074 3.32606 5.26572 4.79335 5.76112 6.12081C4.7071 7.22789 4.12286 8.70018 4.13099 10.2287C4.13099 16.119 7.71728 17.4122 11.1297 17.836C10.7721 18.2055 10.4964 18.6461 10.3204 19.1292C10.1444 19.6123 10.0721 20.127 10.1081 20.6399V24.8456" fill="#D9D9D9"/>
<path d="M10.3955 22.5432C10.9245 22.3845 11.2247 21.827 11.066 21.298C10.9073 20.769 10.3498 20.4688 9.82079 20.6275L10.3955 22.5432ZM2.74339 17.3549C2.2076 17.221 1.66466 17.5467 1.53071 18.0825C1.39676 18.6183 1.72252 19.1613 2.25832 19.2952L2.74339 17.3549ZM16.7154 24.8456C16.7154 25.3979 17.1631 25.8456 17.7154 25.8456C18.2677 25.8456 18.7154 25.3979 18.7154 24.8456H16.7154ZM17.7154 20.6399L16.7185 20.5614C16.7164 20.5875 16.7154 20.6137 16.7154 20.6399H17.7154ZM16.6939 17.8034L16.5831 16.8096C16.2039 16.8518 15.8818 17.1062 15.7528 17.4653C15.6238 17.8243 15.7103 18.2255 15.9759 18.4995L16.6939 17.8034ZM23.6926 10.1961L24.6926 10.1961L24.6926 10.196L23.6926 10.1961ZM22.0624 6.12081L21.1256 5.77117C20.9918 6.12971 21.0743 6.53316 21.3382 6.81033L22.0624 6.12081ZM21.9646 2.02375L22.8838 1.6298C22.7666 1.35654 22.534 1.14957 22.249 1.06503L21.9646 2.02375ZM17.7154 3.63214L17.4538 4.59732C17.7332 4.67305 18.0318 4.62398 18.2722 4.46279L17.7154 3.63214ZM10.1081 3.63214L9.55133 4.46279C9.7918 4.62398 10.0903 4.67305 10.3697 4.59732L10.1081 3.63214ZM5.85893 2.02375L5.57456 1.06503C5.28954 1.14957 5.05691 1.35654 4.93979 1.6298L5.85893 2.02375ZM5.76112 6.12081L6.48537 6.81035C6.74925 6.53318 6.83181 6.12971 6.698 5.77117L5.76112 6.12081ZM4.13099 10.2287L5.131 10.2287L5.13097 10.2234L4.13099 10.2287ZM11.1297 17.836L11.8483 18.5314C12.1119 18.259 12.1989 17.8609 12.0727 17.5034C11.9466 17.1458 11.6292 16.8904 11.2529 16.8437L11.1297 17.836ZM10.1081 20.6399H11.1081C11.1081 20.6164 11.1073 20.593 11.1057 20.5697L10.1081 20.6399ZM9.10814 24.8456C9.10814 25.3979 9.55585 25.8456 10.1081 25.8456C10.6604 25.8456 11.1081 25.3979 11.1081 24.8456H9.10814ZM9.82079 20.6275C8.57605 21.0009 7.74122 21.0022 7.16066 20.8663C6.59297 20.7335 6.17343 20.4476 5.789 20.0632C5.59117 19.8653 5.40642 19.6452 5.21178 19.4013C5.02947 19.173 4.81228 18.8895 4.60356 18.6445C4.18168 18.1492 3.60264 17.5697 2.74339 17.3549L2.25832 19.2952C2.48583 19.3521 2.72185 19.5197 3.08107 19.9414C3.26291 20.1549 3.42778 20.3723 3.64876 20.6491C3.8574 20.9105 4.09717 21.1998 4.37479 21.4774C4.94128 22.0439 5.67641 22.573 6.70489 22.8137C7.7205 23.0514 8.92334 22.9848 10.3955 22.5432L9.82079 20.6275ZM18.7154 24.8456V20.6399H16.7154V24.8456H18.7154ZM18.7123 20.7183C18.7642 20.0586 18.6751 19.3954 18.4509 18.7728L16.5692 19.4505C16.6972 19.806 16.7481 20.1847 16.7185 20.5614L18.7123 20.7183ZM18.4509 18.7728C18.2267 18.1502 17.8725 17.5825 17.4119 17.1074L15.9759 18.4995C16.2389 18.7708 16.4412 19.095 16.5692 19.4505L18.4509 18.7728ZM16.8046 18.7973C18.567 18.6008 20.5618 18.1549 22.1165 16.8477C23.7197 15.4995 24.6926 13.3792 24.6926 10.1961H22.6926C22.6926 12.9467 21.8723 14.4399 20.8293 15.3169C19.7377 16.2348 18.2331 16.6257 16.5831 16.8096L16.8046 18.7973ZM24.6926 10.196C24.6922 8.42201 24.0099 6.7161 22.7867 5.43129L21.3382 6.81033C22.2074 7.72338 22.6923 8.93568 22.6926 10.1963L24.6926 10.196ZM22.9993 6.47045C23.5846 4.90206 23.5433 3.16847 22.8838 1.6298L21.0455 2.4177C21.5024 3.48365 21.531 4.68463 21.1256 5.77117L22.9993 6.47045ZM21.9646 2.02375C22.249 1.06503 22.248 1.06474 22.2471 1.06446C22.2467 1.06436 22.2457 1.06407 22.2451 1.06388C22.2438 1.06349 22.2424 1.0631 22.241 1.06271C22.2383 1.06192 22.2355 1.06112 22.2326 1.06031C22.2268 1.05869 22.2206 1.05702 22.2141 1.05533C22.2012 1.05193 22.1869 1.04841 22.1712 1.04485C22.1399 1.03773 22.1033 1.03047 22.0612 1.02377C21.9771 1.01034 21.8719 0.99925 21.7454 0.995768C21.4918 0.988788 21.1567 1.01249 20.7359 1.10593C19.8959 1.2924 18.7195 1.7552 17.1586 2.8015L18.2722 4.46279C19.6782 3.52033 20.6264 3.17893 21.1693 3.05839C21.4399 2.99832 21.6108 2.99282 21.6904 2.99501C21.7304 2.99611 21.7487 2.9992 21.7462 2.99881C21.7451 2.99862 21.7389 2.99759 21.7278 2.99507C21.7222 2.99381 21.7155 2.99218 21.7076 2.99011C21.7036 2.98907 21.6993 2.98792 21.6948 2.98665C21.6925 2.98601 21.6902 2.98535 21.6877 2.98465C21.6865 2.9843 21.6853 2.98394 21.6841 2.98358C21.6834 2.9834 21.6825 2.98312 21.6822 2.98303C21.6812 2.98275 21.6803 2.98246 21.9646 2.02375ZM17.977 2.66696C15.3149 1.94547 12.5087 1.94547 9.84655 2.66696L10.3697 4.59732C12.6893 3.96868 15.1343 3.96868 17.4538 4.59732L17.977 2.66696ZM10.6649 2.8015C9.10407 1.7552 7.92765 1.2924 7.08769 1.10593C6.66682 1.01249 6.33175 0.988788 6.07814 0.995768C5.95161 0.99925 5.8465 1.01034 5.76233 1.02377C5.7203 1.03047 5.68365 1.03773 5.65233 1.04485C5.63668 1.04841 5.62237 1.05193 5.60941 1.05533C5.60293 1.05702 5.59678 1.05869 5.59097 1.06031C5.58807 1.06112 5.58525 1.06192 5.58251 1.06271C5.58115 1.0631 5.5798 1.06349 5.57848 1.06388C5.57781 1.06407 5.57683 1.06436 5.5765 1.06446C5.57553 1.06474 5.57456 1.06503 5.85893 2.02375C6.14329 2.98246 6.14233 2.98275 6.14138 2.98303C6.14107 2.98312 6.14012 2.9834 6.1395 2.98358C6.13825 2.98394 6.13702 2.9843 6.13581 2.98465C6.13339 2.98535 6.13104 2.98601 6.12876 2.98665C6.12421 2.98792 6.11995 2.98907 6.11598 2.99011C6.10805 2.99218 6.10131 2.99381 6.09577 2.99507C6.08468 2.99759 6.07849 2.99862 6.07731 2.99881C6.07486 2.9992 6.09312 2.99611 6.13317 2.99501C6.21272 2.99282 6.38367 2.99832 6.65424 3.05839C7.19718 3.17893 8.14537 3.52033 9.55133 4.46279L10.6649 2.8015ZM4.93979 1.6298C4.2803 3.16847 4.23892 4.90206 4.82423 6.47045L6.698 5.77117C6.29251 4.68463 6.32118 3.48365 6.77806 2.4177L4.93979 1.6298ZM5.03687 5.43127C3.80457 6.72561 3.1215 8.44694 3.131 10.2341L5.13097 10.2234C5.12422 8.95342 5.60964 7.73016 6.48537 6.81035L5.03687 5.43127ZM3.13099 10.2287C3.13099 13.3933 4.10582 15.5012 5.7071 16.8477C7.25823 18.1519 9.24903 18.6101 11.0064 18.8284L11.2529 16.8437C9.59793 16.6381 8.08938 16.2377 6.99426 15.3169C5.9493 14.4382 5.13099 12.9544 5.13099 10.2287H3.13099ZM10.4111 17.1406C9.95591 17.611 9.60487 18.1719 9.38081 18.7868L11.26 19.4715C11.3879 19.1203 11.5884 18.8 11.8483 18.5314L10.4111 17.1406ZM9.38081 18.7868C9.15675 19.4018 9.06468 20.0571 9.1106 20.71L11.1057 20.5697C11.0795 20.1969 11.132 19.8227 11.26 19.4715L9.38081 18.7868ZM9.10814 20.6399V24.8456H11.1081V20.6399H9.10814Z" fill="#222222" mask="url(#path-1-outside-1_5_246)"/>
</g>
<defs>
<clipPath id="clip0_5_246">
<rect width="26.0821" height="26.0821" fill="white" transform="translate(0.327271 0.937012)"/>
</clipPath>
</defs>
</svg>
