<svg width="27" height="27" viewBox="0 0 27 27" fill="none" xmlns="http://www.w3.org/2000/svg">
<mask id="path-1-outside-1_52_108" maskUnits="userSpaceOnUse" x="0.169067" y="0.0554199" width="25" height="25" fill="black">
<rect fill="white" x="0.169067" y="0.0554199" width="25" height="25"/>
<path d="M9.76076 20.606C4.33812 22.2328 4.33812 17.8947 2.16907 17.3524L9.76076 20.606ZM17.3525 23.8595V19.6624C17.3931 19.1453 17.3233 18.6254 17.1475 18.1374C16.9717 17.6493 16.6941 17.2043 16.333 16.8318C19.7384 16.4522 23.3174 15.1616 23.3174 9.24012C23.3171 7.72594 22.7346 6.26982 21.6906 5.17315C22.1849 3.8484 22.15 2.38412 21.593 1.08448C21.593 1.08448 20.3132 0.704893 17.3525 2.68958C14.8667 2.01589 12.2465 2.01589 9.76076 2.68958C6.8 0.704893 5.52026 1.08448 5.52026 1.08448C4.96322 2.38412 4.92826 3.8484 5.42265 5.17315C4.3708 6.27795 3.78775 7.74723 3.79586 9.27266C3.79586 15.1508 7.3748 16.4414 10.7802 16.8644C10.4234 17.2331 10.1482 17.6728 9.97258 18.1549C9.79693 18.6369 9.72476 19.1506 9.76076 19.6624V23.8595"/>
</mask>
<path d="M9.76076 20.606C4.33812 22.2328 4.33812 17.8947 2.16907 17.3524L9.76076 20.606ZM17.3525 23.8595V19.6624C17.3931 19.1453 17.3233 18.6254 17.1475 18.1374C16.9717 17.6493 16.6941 17.2043 16.333 16.8318C19.7384 16.4522 23.3174 15.1616 23.3174 9.24012C23.3171 7.72594 22.7346 6.26982 21.6906 5.17315C22.1849 3.8484 22.15 2.38412 21.593 1.08448C21.593 1.08448 20.3132 0.704893 17.3525 2.68958C14.8667 2.01589 12.2465 2.01589 9.76076 2.68958C6.8 0.704893 5.52026 1.08448 5.52026 1.08448C4.96322 2.38412 4.92826 3.8484 5.42265 5.17315C4.3708 6.27795 3.78775 7.74723 3.79586 9.27266C3.79586 15.1508 7.3748 16.4414 10.7802 16.8644C10.4234 17.2331 10.1482 17.6728 9.97258 18.1549C9.79693 18.6369 9.72476 19.1506 9.76076 19.6624V23.8595" fill="#7D8491"/>
<path d="M10.0481 21.5638C10.5771 21.4051 10.8773 20.8476 10.7186 20.3186C10.5599 19.7896 10.0024 19.4894 9.47341 19.6481L10.0481 21.5638ZM2.4116 16.3822C1.87581 16.2483 1.33287 16.5741 1.19892 17.1099C1.06498 17.6456 1.39074 18.1886 1.92653 18.3225L2.4116 16.3822ZM16.3525 23.8595C16.3525 24.4118 16.8002 24.8595 17.3525 24.8595C17.9047 24.8595 18.3525 24.4118 18.3525 23.8595H16.3525ZM17.3525 19.6624L16.3555 19.584C16.3535 19.6101 16.3525 19.6363 16.3525 19.6624H17.3525ZM16.333 16.8318L16.2222 15.838C15.843 15.8802 15.5209 16.1346 15.3919 16.4937C15.2629 16.8527 15.3494 17.2539 15.615 17.5279L16.333 16.8318ZM23.3174 9.24012H24.3174V9.23994L23.3174 9.24012ZM21.6906 5.17315L20.7537 4.8235C20.6199 5.18204 20.7024 5.5855 20.9663 5.86267L21.6906 5.17315ZM21.593 1.08448L22.5121 0.690529C22.395 0.417276 22.1623 0.210302 21.8773 0.125762L21.593 1.08448ZM17.3525 2.68958L17.0909 3.65476C17.3703 3.73048 17.6688 3.68141 17.9093 3.52022L17.3525 2.68958ZM9.76076 2.68958L9.20395 3.52022C9.44442 3.68141 9.74293 3.73048 10.0223 3.65476L9.76076 2.68958ZM5.52026 1.08448L5.23589 0.125762C4.95087 0.210302 4.71824 0.417276 4.60112 0.690529L5.52026 1.08448ZM5.42265 5.17315L6.1469 5.86268C6.41078 5.58551 6.49334 5.18205 6.35953 4.8235L5.42265 5.17315ZM3.79586 9.27266H4.79587L4.79584 9.26734L3.79586 9.27266ZM10.7802 16.8644L11.4988 17.5598C11.7625 17.2873 11.8494 16.8892 11.7233 16.5317C11.5972 16.1742 11.2797 15.9187 10.9035 15.872L10.7802 16.8644ZM9.76076 19.6624H10.7608C10.7608 19.639 10.7599 19.6156 10.7583 19.5923L9.76076 19.6624ZM8.76076 23.8595C8.76076 24.4118 9.20847 24.8595 9.76076 24.8595C10.313 24.8595 10.7608 24.4118 10.7608 23.8595H8.76076ZM9.47341 19.6481C8.23146 20.0207 7.39872 20.022 6.81979 19.8865C6.25374 19.754 5.83537 19.4689 5.45193 19.0855C5.25458 18.8881 5.07027 18.6685 4.87604 18.4252C4.69414 18.1973 4.47734 17.9144 4.26902 17.6698C3.84794 17.1755 3.26974 16.5968 2.4116 16.3822L1.92653 18.3225C2.15292 18.3791 2.38811 18.546 2.74654 18.9668C2.92797 19.1797 3.09245 19.3967 3.31302 19.673C3.52125 19.9338 3.76058 20.2225 4.03771 20.4997C4.60323 21.0652 5.33717 21.5935 6.36402 21.8338C7.37799 22.0712 8.57874 22.0046 10.0481 21.5638L9.47341 19.6481ZM18.3525 23.8595V19.6624H16.3525V23.8595H18.3525ZM18.3494 19.7409C18.4012 19.0822 18.3122 18.4201 18.0883 17.7985L16.2066 18.4762C16.3343 18.8307 16.3851 19.2084 16.3555 19.584L18.3494 19.7409ZM18.0883 17.7985C17.8645 17.1769 17.5108 16.6101 17.051 16.1358L15.615 17.5279C15.8773 17.7984 16.079 18.1217 16.2066 18.4762L18.0883 17.7985ZM16.4438 17.8257C18.2027 17.6296 20.1938 17.1845 21.7458 15.8796C23.3463 14.5337 24.3174 12.4171 24.3174 9.24012H22.3174C22.3174 11.9846 21.4989 13.4741 20.4586 14.3488C19.3697 15.2644 17.8687 15.6544 16.2222 15.838L16.4438 17.8257ZM24.3174 9.23994C24.317 7.4691 23.6359 5.76618 22.4148 4.48362L20.9663 5.86267C21.8334 6.77346 22.3171 7.98277 22.3174 9.24031L24.3174 9.23994ZM22.6274 5.52279C23.2117 3.95712 23.1704 2.22653 22.5121 0.690529L20.6738 1.47843C21.1296 2.54171 21.1582 3.73969 20.7537 4.8235L22.6274 5.52279ZM21.593 1.08448C21.8773 0.125762 21.8764 0.125475 21.8754 0.125188C21.875 0.125091 21.8741 0.124803 21.8734 0.12461C21.8721 0.124222 21.8707 0.123832 21.8694 0.123438C21.8666 0.122651 21.8638 0.121851 21.8609 0.12104C21.8551 0.119419 21.849 0.117755 21.8425 0.116059C21.8295 0.112666 21.8152 0.109146 21.7996 0.105589C21.7683 0.0984719 21.7317 0.0912203 21.6897 0.0845234C21.6056 0.0711131 21.5006 0.0600349 21.3742 0.056557C21.121 0.0495864 20.7864 0.0732604 20.3663 0.166539C19.5277 0.352699 18.3535 0.814673 16.7956 1.85893L17.9093 3.52022C19.3122 2.5798 20.2582 2.23922 20.7997 2.119C21.0696 2.05909 21.24 2.05362 21.3192 2.0558C21.3591 2.0569 21.3772 2.05997 21.3747 2.05956C21.3735 2.05937 21.3672 2.05834 21.3561 2.05581C21.3506 2.05455 21.3438 2.05292 21.3359 2.05084C21.3319 2.0498 21.3277 2.04865 21.3231 2.04738C21.3208 2.04674 21.3185 2.04608 21.3161 2.04538C21.3149 2.04503 21.3136 2.04468 21.3124 2.04431C21.3118 2.04413 21.3108 2.04385 21.3105 2.04376C21.3095 2.04348 21.3086 2.04319 21.593 1.08448ZM17.614 1.7244C14.957 1.00429 12.1562 1.00429 9.49917 1.7244L10.0223 3.65476C12.3368 3.0275 14.7764 3.0275 17.0909 3.65476L17.614 1.7244ZM10.3176 1.85893C8.75973 0.814673 7.58549 0.352699 6.74695 0.166539C6.32678 0.0732604 5.99223 0.0495864 5.73897 0.056557C5.6126 0.0600349 5.50763 0.0711131 5.42354 0.0845234C5.38155 0.0912203 5.34493 0.0984719 5.31363 0.105589C5.29799 0.109146 5.28369 0.112666 5.27073 0.116059C5.26425 0.117755 5.25811 0.119419 5.2523 0.12104C5.2494 0.121851 5.24658 0.122651 5.24384 0.123438C5.24248 0.123832 5.24113 0.124222 5.23981 0.12461C5.23914 0.124803 5.23816 0.125091 5.23783 0.125188C5.23686 0.125475 5.23589 0.125762 5.52026 1.08448C5.80462 2.04319 5.80366 2.04348 5.80271 2.04376C5.8024 2.04385 5.80145 2.04413 5.80083 2.04431C5.79958 2.04468 5.79835 2.04503 5.79714 2.04538C5.79472 2.04608 5.79237 2.04674 5.79009 2.04738C5.78554 2.04865 5.78127 2.0498 5.77731 2.05084C5.76937 2.05292 5.76262 2.05455 5.75707 2.05581C5.74596 2.05834 5.73974 2.05937 5.73852 2.05956C5.73598 2.05997 5.75412 2.0569 5.79399 2.0558C5.8732 2.05362 6.04363 2.05909 6.3135 2.119C6.85502 2.23922 7.80103 2.5798 9.20395 3.52022L10.3176 1.85893ZM4.60112 0.690529C3.94278 2.22653 3.90147 3.95712 4.48577 5.52279L6.35953 4.8235C5.95506 3.73969 5.98366 2.54171 6.43939 1.47843L4.60112 0.690529ZM4.6984 4.48361C3.46826 5.77568 2.78639 7.49399 2.79587 9.27798L4.79584 9.26734C4.78911 8.00047 5.27333 6.78023 6.1469 5.86268L4.6984 4.48361ZM2.79586 9.27266C2.79586 12.4312 3.76886 14.5354 5.36743 15.8796C6.91584 17.1816 8.90305 17.6389 10.657 17.8567L10.9035 15.872C9.25196 15.6669 7.74699 15.2674 6.65458 14.3488C5.61233 13.4724 4.79586 11.9923 4.79586 9.27266H2.79586ZM10.0616 16.1689C9.60717 16.6385 9.2567 17.1985 9.033 17.8125L10.9122 18.4972C11.0397 18.147 11.2396 17.8276 11.4988 17.5598L10.0616 16.1689ZM9.033 17.8125C8.80929 18.4265 8.71738 19.0807 8.76322 19.7326L10.7583 19.5923C10.7321 19.2205 10.7846 18.8474 10.9122 18.4972L9.033 17.8125ZM8.76076 19.6624V23.8595H10.7608V19.6624H8.76076Z" fill="#222222" mask="url(#path-1-outside-1_52_108)"/>
</svg>
