<svg width="27" height="27" viewBox="0 0 27 27" fill="none" xmlns="http://www.w3.org/2000/svg">
<path d="M23.9391 24.0863C24.2152 24.0863 24.4391 23.8625 24.4391 23.5863V15.979C24.4391 14.1171 23.6994 12.3314 22.3828 11.0148C21.0662 9.69818 19.2805 8.95852 17.4185 8.95852C15.5566 8.95852 13.7709 9.69818 12.4543 11.0148C11.1377 12.3314 10.398 14.1171 10.398 15.979V23.5863C10.398 23.8625 10.6219 24.0863 10.898 24.0863H15.245C15.5212 24.0863 15.745 23.8625 15.745 23.5863V15.979C15.745 15.5352 15.9214 15.1095 16.2352 14.7957C16.549 14.4818 16.9747 14.3055 17.4185 14.3055C17.8624 14.3055 18.288 14.4818 18.6019 14.7957C18.9157 15.1095 19.0921 15.5352 19.0921 15.979V23.5863C19.0921 23.8625 19.3159 24.0863 19.5921 24.0863H23.9391ZM2.20398 10.0453C1.92784 10.0453 1.70398 10.2691 1.70398 10.5453V23.5863C1.70398 23.8625 1.92784 24.0863 2.20398 24.0863H6.551C6.82714 24.0863 7.051 23.8625 7.051 23.5863V10.5453C7.051 10.2691 6.82714 10.0453 6.551 10.0453H2.20398ZM4.37749 7.78501C5.85403 7.78501 7.051 6.58804 7.051 5.1115C7.051 3.63496 5.85403 2.43799 4.37749 2.43799C2.90095 2.43799 1.70398 3.63496 1.70398 5.1115C1.70398 6.58804 2.90095 7.78501 4.37749 7.78501Z" fill="#D9D9D9" stroke="#222222" stroke-linecap="round" stroke-linejoin="round"/>
</svg>
