<svg width="27" height="27" viewBox="0 0 27 27" fill="none" xmlns="http://www.w3.org/2000/svg">
<path d="M3.06113 21.4807L3.06849 21.4884L3.07617 21.4958C3.6032 22.0008 4.24306 22.2597 4.97075 22.2597H22.3588C23.087 22.2597 23.722 22.0002 24.2338 21.4883C24.7593 20.9628 25.0323 20.3206 25.0323 19.5861V6.54509C25.0323 5.8135 24.7612 5.1789 24.2339 4.67002C23.725 4.14276 23.0904 3.87158 22.3588 3.87158H4.97075C4.23625 3.87158 3.59405 4.1446 3.06857 4.67008L3.06857 4.67008C2.55669 5.18196 2.29724 5.81693 2.29724 6.54509V19.5861C2.29724 20.3138 2.55607 20.9537 3.06113 21.4807ZM5.47075 7.44721L13.3998 12.4029L13.6648 12.5685L13.9298 12.4029L21.8588 7.44721V8.44148L13.6648 13.5628L5.47075 8.44148V7.44721Z" stroke="#222222"/>
</svg>
